<svg width="290" height="276" viewBox="393 0 290 276" fill="none" xmlns="http://www.w3.org/2000/svg">
<path d="M404 220.167V1.27806C444.651 -8.10288 454.813 36.4566 454.813 59.9089L419.635 91.1787C404 109.941 418.332 125.054 427.452 130.266L454.813 98.9962C454.813 205.314 420.938 224.075 404 220.167Z" fill="#CCB36D"/>
<path d="M677.611 1.27806H474.357C468.103 10.659 482.174 31.245 489.992 40.3653C727.642 -6.53935 685.428 208.441 552.532 192.806C580.674 242.837 647.644 268.374 677.611 274.889V1.27806Z" fill="#CCB36D"/>
<path d="M583.801 274.889H404V251.436L407.909 255.345C470.448 267.853 488.689 211.046 489.992 181.079V75.5439C493.119 59.909 540.805 58.606 564.258 59.9089C633.051 63.0359 642.432 106.814 626.797 130.266C601.781 167.79 566.864 158.93 552.532 149.81C603.345 98.9962 552.532 87.27 532.988 95.0875C457.94 126.357 535.594 227.984 583.801 274.889Z" fill="#CCB36D"/>
</svg>
