<svg width="1082" height="638" viewBox="0 0 1082 638" fill="none" xmlns="http://www.w3.org/2000/svg">
<path d="M319.884 524.106V604H303.334V569.189H256.539V604H239.989V524.106H256.539V560.629H303.334V524.106H319.884ZM399.76 529.813C395.88 529.813 392.227 530.497 388.803 531.867C385.455 533.237 382.526 535.329 380.015 538.144C377.504 540.96 375.488 544.536 373.966 548.873C372.52 553.134 371.797 558.194 371.797 564.053C371.797 569.912 372.52 575.01 373.966 579.347C375.488 583.608 377.504 587.146 380.015 589.962C382.526 592.777 385.455 594.869 388.803 596.239C392.227 597.609 395.88 598.293 399.76 598.293C403.641 598.293 407.255 597.609 410.603 596.239C414.027 594.869 416.995 592.777 419.506 589.962C422.017 587.146 423.995 583.608 425.441 579.347C426.962 575.01 427.723 569.912 427.723 564.053C427.723 558.194 426.962 553.134 425.441 548.873C423.995 544.536 422.017 540.96 419.506 538.144C416.995 535.329 414.027 533.237 410.603 531.867C407.255 530.497 403.641 529.813 399.76 529.813ZM399.76 521.823C406.608 521.823 412.81 522.736 418.364 524.562C423.995 526.389 428.789 529.09 432.745 532.666C436.778 536.242 439.898 540.655 442.104 545.906C444.311 551.156 445.414 557.205 445.414 564.053C445.414 570.901 444.311 576.95 442.104 582.2C439.898 587.451 436.778 591.864 432.745 595.44C428.789 599.016 423.995 601.717 418.364 603.544C412.81 605.37 406.608 606.283 399.76 606.283C392.912 606.283 386.673 605.37 381.042 603.544C375.412 601.717 370.58 599.016 366.547 595.44C362.59 591.864 359.509 587.451 357.302 582.2C355.172 576.95 354.106 570.901 354.106 564.053C354.106 557.205 355.172 551.156 357.302 545.906C359.509 540.655 362.59 536.242 366.547 532.666C370.58 529.09 375.412 526.389 381.042 524.562C386.673 522.736 392.912 521.823 399.76 521.823ZM543.008 532.666H512.192V604H495.642V532.666H464.826V524.106H543.008V532.666ZM589.242 532.666V558.917H630.901V567.477H589.242V595.44H642.314V604H572.692V524.106H642.314V532.666H589.242ZM739.895 595.44V604H674.268V524.106H690.817V595.44H739.895ZM844.904 582.885C844.904 586.157 844.219 589.239 842.849 592.13C841.48 594.945 839.235 597.418 836.115 599.549C833.072 601.603 829.077 603.239 824.131 604.457C819.261 605.674 813.25 606.283 806.098 606.283C802.065 606.283 798.108 605.978 794.228 605.37C790.423 604.761 786.771 603.886 783.271 602.745C779.847 601.603 776.651 600.234 773.684 598.636C770.792 596.962 768.281 595.136 766.151 593.157L771.857 586.309C776.195 590.038 781.255 592.891 787.037 594.869C792.82 596.772 799.174 597.723 806.098 597.723C813.783 597.723 819.223 596.657 822.419 594.527C825.615 592.396 827.213 589.467 827.213 585.739C827.213 582.847 825.957 580.412 823.446 578.434C820.935 576.456 816.674 574.515 810.663 572.613L788.978 565.765C781.825 563.482 776.423 560.591 772.771 557.091C769.118 553.515 767.292 548.987 767.292 543.509C767.292 540.693 767.939 537.992 769.232 535.405C770.602 532.742 772.694 530.421 775.51 528.443C778.325 526.389 781.901 524.791 786.238 523.649C790.652 522.432 795.94 521.823 802.103 521.823C805.832 521.823 809.522 522.127 813.174 522.736C816.903 523.345 820.441 524.22 823.789 525.361C827.213 526.503 830.371 527.91 833.262 529.584C836.229 531.182 838.778 532.97 840.909 534.949L835.202 541.797C830.865 538.068 825.995 535.253 820.593 533.351C815.191 531.372 809.027 530.383 802.103 530.383C796.396 530.383 792.097 531.372 789.206 533.351C786.391 535.329 784.983 537.764 784.983 540.655C784.983 542.253 785.249 543.661 785.782 544.878C786.315 546.02 787.19 547.123 788.407 548.188C789.701 549.177 791.375 550.129 793.429 551.042C795.483 551.879 798.032 552.792 801.076 553.781L822.647 560.629C829.572 562.836 835.012 565.727 838.969 569.303C842.925 572.879 844.904 577.407 844.904 582.885Z" fill="#CCB36D"/>
<path d="M67.2301 367.167C75.0475 367.167 82.0311 368.053 88.1808 369.825C94.4348 371.492 99.6986 373.994 103.972 377.329C108.246 380.561 111.529 384.574 113.822 389.368C116.115 394.059 117.262 399.427 117.262 405.472C117.262 413.811 115.177 420.847 111.008 426.579C106.838 432.312 100.845 436.69 93.0277 439.713L118.825 476.611H93.0277L70.0444 443.778H67.2301H33.615V476.611H10.9444V367.167H67.2301ZM33.615 378.893V432.052H67.2301C75.4645 432.052 81.8227 429.915 86.3047 425.641C90.7867 421.263 93.0277 414.54 93.0277 405.472C93.0277 396.404 90.7867 389.733 86.3047 385.46C81.8227 381.082 75.4645 378.893 67.2301 378.893H33.615ZM186.807 378.893V414.853H243.874V426.579H186.807V464.885H259.509V476.611H164.136V367.167H259.509V378.893H186.807ZM404.907 447.686C404.907 452.168 403.969 456.39 402.093 460.351C400.217 464.207 397.142 467.595 392.868 470.513C388.699 473.328 383.227 475.569 376.452 477.236C369.781 478.904 361.547 479.738 351.749 479.738C346.224 479.738 340.804 479.321 335.488 478.487C330.277 477.653 325.274 476.455 320.479 474.891C315.788 473.328 311.411 471.451 307.346 469.263C303.385 466.969 299.945 464.468 297.026 461.758L304.844 452.377C310.785 457.484 317.717 461.393 325.638 464.103C333.56 466.709 342.263 468.012 351.749 468.012C362.276 468.012 369.729 466.553 374.107 463.634C378.484 460.716 380.673 456.703 380.673 451.595C380.673 447.634 378.953 444.299 375.514 441.589C372.074 438.879 366.237 436.221 358.003 433.615L328.296 424.234C318.498 421.107 311.098 417.146 306.095 412.352C301.092 407.453 298.59 401.251 298.59 393.746C298.59 389.889 299.476 386.189 301.248 382.645C303.124 378.997 305.99 375.818 309.847 373.108C313.704 370.294 318.603 368.105 324.544 366.541C330.589 364.874 337.834 364.04 346.276 364.04C351.384 364.04 356.439 364.457 361.442 365.29C366.55 366.124 371.396 367.323 375.983 368.887C380.673 370.45 384.999 372.378 388.96 374.671C393.025 376.86 396.517 379.31 399.435 382.02L391.618 391.401C385.676 386.293 379.005 382.437 371.605 379.831C364.204 377.121 355.762 375.766 346.276 375.766C338.459 375.766 332.57 377.121 328.609 379.831C324.752 382.541 322.824 385.876 322.824 389.837C322.824 392.026 323.189 393.954 323.919 395.622C324.648 397.186 325.847 398.697 327.515 400.156C329.286 401.511 331.58 402.814 334.394 404.065C337.208 405.212 340.7 406.462 344.869 407.817L374.419 417.198C383.904 420.221 391.357 424.182 396.777 429.081C402.197 433.98 404.907 440.182 404.907 447.686ZM471.356 476.611H448.685V367.167H471.356V476.611ZM573.007 367.167C582.388 367.167 590.883 368.365 598.492 370.763C606.205 373.056 612.772 376.496 618.192 381.082C623.716 385.668 627.99 391.401 631.012 398.28C634.035 405.055 635.547 412.925 635.547 421.889C635.547 430.853 634.035 438.775 631.012 445.654C627.99 452.429 623.716 458.11 618.192 462.696C612.772 467.282 606.205 470.774 598.492 473.171C590.883 475.464 582.388 476.611 573.007 476.611H521.412V367.167H573.007ZM544.082 378.893V464.885H573.007C578.323 464.885 583.274 464.103 587.86 462.54C592.551 460.872 596.616 458.318 600.055 454.878C603.495 451.335 606.205 446.853 608.185 441.432C610.27 436.012 611.312 429.498 611.312 421.889C611.312 414.28 610.27 407.765 608.185 402.345C606.205 396.925 603.495 392.495 600.055 389.056C596.616 385.512 592.551 382.958 587.86 381.394C583.274 379.727 578.323 378.893 573.007 378.893H544.082ZM703.534 378.893V414.853H760.601V426.579H703.534V464.885H776.236V476.611H680.863V367.167H776.236V378.893H703.534ZM932.579 367.167V476.611H902.873L844.242 387.492H842.678V476.611H820.008V367.167H849.714L908.345 456.286H909.909V367.167H932.579ZM1080.38 378.893H1038.17V476.611H1015.5V378.893H973.285V367.167H1080.38V378.893Z" fill="#CCB36D"/>
<path d="M404 220.167V1.27806C444.651 -8.10288 454.813 36.4566 454.813 59.9089L419.635 91.1787C404 109.941 418.332 125.054 427.452 130.266L454.813 98.9962C454.813 205.314 420.938 224.075 404 220.167Z" fill="#CCB36D"/>
<path d="M677.611 1.27806H474.357C468.103 10.659 482.174 31.245 489.992 40.3653C727.642 -6.53935 685.428 208.441 552.532 192.806C580.674 242.837 647.644 268.374 677.611 274.889V1.27806Z" fill="#CCB36D"/>
<path d="M583.801 274.889H404V251.436L407.909 255.345C470.448 267.853 488.689 211.046 489.992 181.079V75.5439C493.119 59.909 540.805 58.606 564.258 59.9089C633.051 63.0359 642.432 106.814 626.797 130.266C601.781 167.79 566.864 158.93 552.532 149.81C603.345 98.9962 552.532 87.27 532.988 95.0875C457.94 126.357 535.594 227.984 583.801 274.889Z" fill="#CCB36D"/>
</svg>
