<?xml version="1.0" standalone="no"?>
<!DOCTYPE svg PUBLIC "-//W3C//DTD SVG 20010904//EN"
 "http://www.w3.org/TR/2001/REC-SVG-20010904/DTD/svg10.dtd">
<svg version="1.0" xmlns="http://www.w3.org/2000/svg"
 width="1536.000000pt" height="1024.000000pt" viewBox="0 0 1536.000000 1024.000000"
 preserveAspectRatio="xMidYMid meet">

<g transform="translate(0.000000,1024.000000) scale(0.100000,-0.100000)"
fill="#000000" stroke="none">
<path d="M6410 6203 c0 -10 -14 -155 -30 -323 -17 -168 -39 -406 -50 -530 -11
-124 -29 -312 -40 -418 -11 -107 -20 -207 -20 -223 l0 -29 130 0 c128 0 130 0
130 23 0 12 11 139 25 282 14 143 25 266 25 273 0 9 31 12 123 12 l122 -1 70
-96 c226 -310 345 -477 345 -485 0 -4 72 -8 160 -8 l160 0 -70 88 c-39 48
-122 155 -185 238 -63 83 -137 179 -165 214 -28 35 -49 65 -47 66 2 2 46 15
99 28 52 13 118 36 146 50 303 154 353 608 84 769 -126 76 -212 87 -663 87
-326 0 -349 -1 -349 -17z m746 -186 c138 -45 200 -149 173 -293 -14 -77 -38
-122 -90 -168 -86 -79 -208 -106 -476 -106 l-163 0 0 43 c0 40 32 381 46 489
l6 47 66 3 c171 8 388 1 438 -15z"/>
<path d="M5308 5405 c-252 -379 -514 -775 -582 -880 l-126 -190 353 -3 c325
-2 358 -1 431 18 143 36 266 133 330 262 55 108 57 139 54 843 l-3 640 -457
-690z"/>
<path d="M11694 6043 l-90 -15 -28 -296 c-15 -163 -34 -355 -42 -427 -8 -71
-17 -195 -21 -275 -7 -173 5 -224 65 -283 59 -57 121 -80 237 -85 106 -4 242
17 256 40 8 12 23 147 18 152 -2 2 -40 -3 -83 -12 -133 -26 -220 4 -247 86
-12 37 -9 99 16 367 8 83 17 178 21 213 l6 62 169 0 c127 0 171 3 174 13 2 6
6 45 10 85 l6 72 -170 0 -171 0 0 28 c0 15 4 66 10 112 5 47 12 106 15 133 l6
47 -33 -1 c-18 -1 -74 -8 -124 -16z"/>
<path d="M8057 5755 c-233 -59 -392 -235 -433 -480 -48 -282 70 -501 316 -586
96 -33 318 -39 450 -11 148 31 145 29 158 111 17 102 16 125 -5 115 -187 -82
-407 -99 -529 -39 -93 46 -164 153 -164 249 l0 32 300 12 c342 15 520 28 534
42 5 5 9 60 10 122 0 85 -4 127 -18 171 -39 118 -118 199 -244 248 -74 29
-285 37 -375 14z m298 -172 c22 -12 50 -32 62 -45 34 -36 63 -109 63 -160 l0
-46 -47 -6 c-87 -11 -346 -26 -461 -26 l-114 0 7 33 c21 103 117 217 218 256
70 28 212 25 272 -6z"/>
<path d="M9087 5749 c-190 -54 -282 -152 -281 -298 1 -101 45 -171 140 -227
23 -14 97 -45 165 -70 223 -82 279 -124 265 -198 -14 -71 -70 -109 -192 -128
-103 -16 -215 0 -406 59 -13 4 -18 -4 -23 -44 -3 -26 -10 -65 -14 -85 -10 -42
-8 -43 109 -75 96 -26 410 -25 495 1 160 49 242 130 266 262 23 125 -26 216
-150 278 -36 18 -130 57 -209 86 -163 60 -212 94 -212 149 0 88 68 132 217
139 95 5 194 -8 276 -34 27 -9 51 -13 54 -10 3 3 11 40 18 81 14 92 18 88
-126 116 -133 25 -299 25 -392 -2z"/>
<path d="M10725 5765 c-5 -1 -37 -9 -70 -16 -129 -27 -247 -99 -303 -185 -61
-91 -78 -161 -102 -414 -5 -58 -16 -172 -25 -255 -8 -82 -15 -165 -15 -182 l0
-33 119 0 119 0 7 78 c25 287 56 569 66 605 25 95 80 160 174 204 51 23 73 28
145 28 103 0 166 -26 210 -87 46 -63 53 -119 35 -292 -8 -83 -22 -218 -30
-301 -9 -82 -18 -169 -21 -192 l-5 -43 124 0 125 0 6 78 c4 42 13 140 21 217
35 348 39 434 26 498 -42 203 -195 298 -475 296 -67 0 -125 -2 -131 -4z"/>
<path d="M9841 5623 c-7 -65 -16 -158 -22 -208 -22 -211 -69 -692 -69 -712 0
-23 2 -23 119 -23 l118 0 7 48 c3 26 22 218 41 427 20 209 40 416 45 460 17
138 28 125 -109 125 l-119 0 -11 -117z"/>
<path d="M4451 5683 c0 -12 -16 -39 -33 -60 -30 -34 -31 -35 -6 -18 34 25 51
57 45 81 -4 16 -5 16 -6 -3z"/>
<path d="M4650 5645 c-19 -19 -39 -35 -45 -35 -6 0 -17 -6 -23 -12 -7 -7 -17
-14 -22 -14 -6 -1 -14 -2 -20 -3 -5 0 -10 -6 -10 -12 0 -8 4 -8 14 0 10 8 16
9 21 1 4 -6 1 -9 -7 -8 -7 2 -12 -2 -11 -9 2 -8 -4 -10 -14 -6 -11 4 -14 3 -9
-6 4 -6 2 -20 -5 -29 -7 -9 29 23 79 73 51 49 92 91 92 92 0 7 -9 0 -40 -32z
m-50 -49 c0 -2 -8 -10 -17 -17 -16 -13 -17 -12 -4 4 13 16 21 21 21 13z"/>
<path d="M4370 5400 l0 -54 40 39 c41 40 50 52 28 38 -24 -14 -38 -11 -53 10
-14 20 -15 18 -15 -33z"/>
<path d="M4639 5393 c-13 -16 -12 -17 4 -4 16 13 21 21 13 21 -2 0 -10 -8 -17
-17z"/>
<path d="M3382 5070 c-2 -315 6 -381 55 -473 35 -66 133 -164 199 -199 103
-55 143 -61 474 -65 l305 -4 130 201 c72 110 199 305 283 433 137 207 206 317
156 250 -14 -20 -18 -21 -31 -8 -8 9 -19 13 -24 10 -5 -4 -9 -1 -9 5 0 6 -4 9
-9 6 -4 -3 -18 5 -31 19 -22 24 -55 29 -77 12 -7 -5 -16 -6 -22 -3 -5 4 -16
-1 -24 -9 -18 -18 -31 -20 -21 -3 4 7 3 8 -4 4 -6 -4 -9 -13 -6 -21 5 -11 -1
-13 -28 -9 -81 12 -103 13 -115 2 -8 -7 -10 -14 -4 -17 5 -4 3 -14 -6 -26 -12
-15 -14 -16 -10 -3 4 12 1 16 -13 15 -10 -1 -18 -6 -17 -12 1 -5 -4 -9 -12 -7
-12 3 -12 1 -1 -15 8 -10 11 -15 6 -11 -10 8 -36 -14 -29 -24 4 -7 -20 -12
-40 -9 -5 1 -6 -3 -2 -9 3 -5 0 -10 -9 -10 -8 0 -16 -6 -18 -12 -4 -10 -9 -8
-21 3 -9 9 -14 19 -11 21 2 3 7 16 9 28 3 17 -29 -10 -113 -92 -128 -126 -161
-145 -234 -133 -25 5 -64 24 -98 48 -82 61 -250 177 -257 177 -3 0 5 -9 18
-19 l24 -19 -34 1 c-27 2 -42 -5 -65 -28 -17 -16 -42 -31 -56 -33 -13 -1 -27
-6 -30 -10 -3 -5 -23 -16 -45 -25 l-40 -16 30 -2 c24 -1 26 -3 7 -6 -12 -2
-20 -9 -17 -14 3 -5 0 -6 -8 -3 -17 6 -57 -32 -57 -54 0 -12 -3 -12 -16 -2 -8
8 -14 9 -13 4 1 -5 0 -18 -2 -29 -2 -11 -6 93 -9 230 l-6 250 -2 -285z"/>
<path d="M3852 5287 c-2 -35 -5 -46 -14 -41 -10 5 -10 4 -1 -6 19 -20 25 -7
20 46 l-3 49 -2 -48z"/>
<path d="M4242 5281 c-2 -44 -4 -52 -16 -42 -11 9 -14 8 -12 -5 0 -9 -7 -18
-17 -19 -9 -2 -15 1 -11 6 3 5 0 9 -5 9 -6 0 -11 -4 -11 -10 0 -5 -18 -10 -40
-10 -22 0 -40 -4 -40 -10 0 -5 6 -10 13 -10 8 0 7 -4 -3 -10 -19 -12 -43 -13
-36 -1 3 5 -3 11 -14 14 -11 3 -20 0 -21 -6 0 -7 -4 -3 -9 8 l-9 20 -1 -20
c-2 -17 -3 -16 -10 5 -7 21 -8 17 -9 -21 -1 -36 3 -49 17 -55 9 -4 21 -6 25
-5 5 1 6 -3 2 -8 -3 -6 8 -17 25 -26 33 -17 62 -7 57 18 -1 7 3 11 9 10 6 -1
36 24 68 56 l57 58 -4 54 -3 54 -2 -54z"/>
<path d="M3633 5075 c0 -8 4 -12 9 -9 5 3 6 10 3 15 -9 13 -12 11 -12 -6z"/>
</g>
</svg>
